HIERARCHY
ROOT Hips
{
     OFFSET 1.88212 96.90440 -13.34250
     CHANNELS 6 Xposition Yposition Zposition Zrotation Xrotation Yrotation
     JOINT Spine
     {
          OFFSET 0.00000 11.89050 0.00000
          CHANNELS 3 Zrotation Xrotation Yrotation
          JOINT Spine1
          {
               OFFSET -0.00000 25.65740 0.12766
               CHANNELS 3 Zrotation Xrotation Yrotation
               JOINT HEad
               {
                    OFFSET 0.00000 8.73416 0.01134
                    CHANNELS 3 Zrotation Xrotation Yrotation
                    End Site
                    {
                         OFFSET -0.29000 12.77420 2.51395
                    }
               }
               JOINT LeftShoulder1
               {
                    OFFSET 8.99000 -0.36225 -0.22000
                    CHANNELS 3 Zrotation Xrotation Yrotation
                    JOINT LeftArm
                    {
                         OFFSET 10.28270 -0.00338 0.32212
                         CHANNELS 3 Zrotation Xrotation Yrotation
                         JOINT LeftForeArm
                         {
                              OFFSET 32.76690 0.09914 -1.42434
                              CHANNELS 3 Zrotation Xrotation Yrotation
                              JOINT LeftHand
                              {
                                   OFFSET 27.56430 0.08536 1.02216
                                   CHANNELS 3 Zrotation Xrotation Yrotation
                                   End Site
                                   {
                                        OFFSET 16.74430 -0.60000 1.50291
                                   }
                              }
                         }
                    }
               }
               JOINT RightShoulder
               {
                    OFFSET -8.99000 -0.36225 -0.22000
                    CHANNELS 3 Zrotation Xrotation Yrotation
                    JOINT RightArm
                    {
                         OFFSET -10.28270 -0.00338 0.32212
                         CHANNELS 3 Zrotation Xrotation Yrotation
                         JOINT RightForeArm
                         {
                              OFFSET -32.89710 0.09914 -1.42434
                              CHANNELS 3 Zrotation Xrotation Yrotation
                              JOINT RightHand
                              {
                                   OFFSET -27.49210 0.08536 1.02216
                                   CHANNELS 3 Zrotation Xrotation Yrotation
                                   End Site
                                   {
                                        OFFSET -16.63120 -0.60000 1.50291
                                   }
                              }
                         }
                    }
               }
          }
     }
     JOINT LeftUpLeg
     {
          OFFSET 8.94580 -8.66707 0.10165
          CHANNELS 3 Zrotation Xrotation Yrotation
          JOINT LeftLeg
          {
               OFFSET 0.00000 -44.42270 1.37270
               CHANNELS 3 Zrotation Xrotation Yrotation
               JOINT LeftFoot
               {
                    OFFSET -0.25355 -42.09240 -1.46059
                    CHANNELS 3 Zrotation Xrotation Yrotation
                    JOINT LeftToes
                    {
                         OFFSET -0.04000 -4.41509 8.49910
                         CHANNELS 3 Zrotation Xrotation Yrotation
                         End Site
                         {
                              OFFSET 0.08000 -0.04745 9.77979
                         }
                    }
               }
          }
     }
     JOINT RightUpLeg
     {
          OFFSET -8.94580 -8.66707 0.10165
          CHANNELS 3 Zrotation Xrotation Yrotation
          JOINT RightLeg
          {
               OFFSET 0.00000 -44.42270 1.37270
               CHANNELS 3 Zrotation Xrotation Yrotation
               JOINT RightFoot
               {
                    OFFSET 0.25355 -42.09240 -1.46059
                    CHANNELS 3 Zrotation Xrotation Yrotation
                    JOINT RightToes
                    {
                         OFFSET 0.04000 -4.41509 8.49910
                         CHANNELS 3 Zrotation Xrotation Yrotation
                         End Site
                         {
                              OFFSET -0.08000 -0.13745 9.77979
                         }
                    }
               }
          }
     }
}
MOTION
Frames: 8
Frame Time: 0.01667
5.88121 98.71418 -0.34254 27.36183 43.77579 87.12435 8.08828 15.44094 17.66015 0.00283 -0.00825 -0.03486 -14.99136 12.80546 20.86136 -0.40875 8.49803 -5.04061 -52.16957 -19.57051 17.79241 -7.80120 11.61368 -43.23146 31.59052 3.00230 -5.04650 17.13725 4.48695 -6.86474 53.89235 15.51299 51.05353 7.71365 27.84707 100.05773 -1.30729 8.36912 5.90626 44.09413 -6.46777 -16.54045 -62.35696 11.81302 84.96545 0.12652 -0.00242 -0.00619 -5.06308 -6.38762 -14.21241 -41.45444 5.58990 9.03335 -0.25312 33.54013 -5.74567 45.18364 0.00597 0.00731 -26.31516 9.52384 -10.73439 
5.10683 97.81534 0.36000 27.88187 43.20814 88.75964 7.62149 16.58952 18.29167 0.00215 -0.00353 -0.03134 -15.02646 12.56970 22.59676 0.30810 7.89763 -6.74939 -51.03302 -21.21937 17.98698 -6.15334 13.84838 -51.21535 28.93111 11.73245 2.90372 17.55829 3.83572 -8.25560 53.84880 15.33338 51.63442 7.41267 28.18165 100.46033 -1.50790 8.51760 5.48747 43.40824 -9.23481 -13.53848 -62.06380 15.34010 84.85770 2.44315 -0.00572 -0.00087 -7.18450 -6.00849 -14.34653 -40.12395 6.25040 9.27071 0.94941 35.05130 -7.86009 46.55310 0.00484 0.00492 -28.17477 8.83848 -10.88743 
4.32766 96.95326 1.15306 28.26767 42.66560 90.38744 6.23645 18.52756 18.65458 -0.03916 0.09135 -0.04914 -14.51261 10.95561 24.07454 1.34028 6.36655 -7.62385 -49.83361 -22.93033 17.79901 -4.96892 15.75891 -56.66093 30.40752 7.53122 4.32079 12.23793 12.19785 -4.36184 59.98544 7.37540 57.76060 6.85391 28.55067 100.97808 -1.85932 8.53636 5.30095 43.14622 -12.32687 -9.53966 -61.79706 20.03815 84.25225 2.72032 0.00490 -0.00324 -7.56577 -5.80218 -14.34526 -38.79076 6.78170 9.36157 2.25179 36.32997 -10.01874 47.78896 0.00366 0.00299 -29.82632 8.39617 -10.94618 
3.52870 96.11938 2.04861 28.53862 42.14234 91.99532 4.07687 21.15166 18.84182 -0.03892 0.08837 -0.04705 -13.66568 8.34845 25.33800 2.56678 4.24813 -7.80374 -48.64802 -24.71105 17.25353 -4.09849 17.47928 -60.68133 29.16872 11.71866 7.26179 14.00047 9.20602 -4.64004 59.35090 7.95866 57.49546 6.46012 28.84468 101.36938 -2.13115 8.66370 5.03307 43.32764 -15.66559 -4.58372 -61.49000 25.78997 83.17622 3.35816 0.00613 -0.00359 -8.53108 -5.47002 -14.06624 -37.43550 7.25075 9.31398 3.33538 36.29694 -12.85783 30.24583 -0.09901 0.17676 -12.70201 9.54733 -10.53995 
2.69649 95.31257 3.04157 28.83729 41.65960 93.55995 1.74567 23.97781 19.08940 -0.01284 0.02623 -0.01612 -12.83330 5.53462 26.53057 3.75396 2.07486 -7.68098 -47.50040 -26.43894 16.63239 -2.91516 19.17320 -66.03053 30.53052 11.81190 5.10054 15.66643 6.24491 -4.76152 58.76070 8.50519 57.30539 6.12628 29.10413 101.83150 -2.42332 8.75097 4.78038 43.70084 -19.01892 0.65807 -60.98741 31.80493 81.84009 3.78175 0.00211 -0.00172 -9.34111 -5.12676 -13.73299 -36.00066 7.70179 9.21127 4.68324 36.36201 -15.77632 12.55952 -0.10029 0.10118 4.27093 10.27613 -9.96653 
1.84459 94.54304 4.12529 29.14736 41.20169 95.08665 -0.74228 26.98382 19.44198 -0.00966 0.02343 -0.01277 -12.21233 2.62631 27.33160 2.99235 2.71560 -6.59860 -45.35668 -29.57427 13.19436 -1.51639 20.69394 -72.53403 30.66522 12.45133 6.39748 17.22224 3.29949 -4.55076 58.28188 8.87679 57.22963 5.89980 29.30143 102.27254 -2.71950 8.80113 4.49538 44.20280 -22.34423 6.19151 -60.09490 38.00296 80.12962 4.06344 0.00232 -0.00141 -9.97354 -4.80876 -13.32285 -34.48454 8.14295 9.04960 5.81569 35.91207 -18.40216 1.55446 -0.07842 0.09658 14.60825 11.39326 -9.72929 
0.99645 93.82629 5.29534 29.44465 40.76223 96.58547 -3.40583 30.14557 19.94282 -0.00902 0.02312 -0.01263 -11.76831 -0.30011 27.68951 2.88468 2.28966 -5.62628 -43.82561 -32.39371 10.42937 -0.26477 21.98655 -78.48515 30.43791 13.04703 8.41605 18.67357 0.45739 -4.06801 57.92179 9.06391 57.26824 5.76005 29.44450 102.69807 -3.00975 8.82528 4.16331 44.85492 -25.58813 12.05318 -58.57988 44.31617 77.80062 4.24479 0.00275 -0.00115 -10.43083 -4.48828 -12.81357 -32.90847 8.59121 8.82522 6.61540 35.01498 -20.64996 -3.15195 -0.05254 0.05877 18.76857 12.83851 -9.74302 
0.20658 92.97163 6.39271 29.13931 39.75537 98.69610 -5.88594 32.85441 20.38137 -0.02166 0.01776 -0.01173 -11.26843 -3.11081 27.84840 0.92675 3.41987 -5.66701 -41.63062 -38.31942 6.71610 0.59816 24.27034 -84.66344 28.98437 9.88972 7.89598 17.93490 0.05489 -4.67992 59.31040 8.60249 58.89629 5.56881 29.25549 102.91824 0.36295 8.27259 -0.42704 43.85624 -27.94395 16.80372 -57.81314 50.63383 75.91300 3.84377 0.02233 -0.00543 -10.88719 -3.82096 -17.26223 -30.94691 8.85969 8.40402 7.91087 34.20573 -23.31120 -7.93599 -0.02395 0.03231 18.34181 9.82307 -6.98320 
